<?xml version="1.0" encoding="UTF-8"?>
<svg xmlns="http://www.w3.org/2000/svg" width="600" height="370" viewBox="0 0 600 370" font-family="Helvetica, Arial, sans-serif">
<style> .label{font-size:12px; fill:#333;} .value{font-size:11px; fill:#333;} </style>
<text class="label" x="10" y="35.4">SWISU</text>
<rect x="120" y="20" width="460.0" height="22" fill="#377eb8" rx="3" ry="3"/>
<text class="value" x="586.0" y="35.4">29.6%</text>
<text class="label" x="10" y="63.4">OldTown</text>
<rect x="120" y="48" width="454.2" height="22" fill="#377eb8" rx="3" ry="3"/>
<text class="value" x="580.2213897405827" y="63.4">29.2%</text>
<text class="label" x="10" y="91.4">BrkSide</text>
<rect x="120" y="76" width="449.0" height="22" fill="#377eb8" rx="3" ry="3"/>
<text class="value" x="574.9637996401916" y="91.4">28.9%</text>
<text class="label" x="10" y="119.4">IDOTRR</text>
<rect x="120" y="104" width="379.1" height="22" fill="#377eb8" rx="3" ry="3"/>
<text class="value" x="505.05590380986104" y="119.4">24.4%</text>
<text class="label" x="10" y="147.4">Edwards</text>
<rect x="120" y="132" width="277.5" height="22" fill="#377eb8" rx="3" ry="3"/>
<text class="value" x="403.4727535085007" y="147.4">17.9%</text>
<text class="label" x="10" y="175.4">MeadowV</text>
<rect x="120" y="160" width="176.2" height="22" fill="#377eb8" rx="3" ry="3"/>
<text class="value" x="302.19768122838536" y="175.4">11.3%</text>
<text class="label" x="10" y="203.4">Crawfor</text>
<rect x="120" y="188" width="171.1" height="22" fill="#377eb8" rx="3" ry="3"/>
<text class="value" x="297.11049862464296" y="203.4">11.0%</text>
<text class="label" x="10" y="231.4">Gilbert</text>
<rect x="120" y="216" width="166.4" height="22" fill="#377eb8" rx="3" ry="3"/>
<text class="value" x="292.35153215662916" y="231.4">10.7%</text>
<text class="label" x="10" y="259.4">Sawyer</text>
<rect x="120" y="244" width="164.5" height="22" fill="#377eb8" rx="3" ry="3"/>
<text class="value" x="290.507978198538" y="259.4">10.6%</text>
<text class="label" x="10" y="287.4">Greens</text>
<rect x="120" y="272" width="163.1" height="22" fill="#377eb8" rx="3" ry="3"/>
<text class="value" x="289.1293695383137" y="287.4">10.5%</text>
<text class="label" x="10" y="315.4">CollgCr</text>
<rect x="120" y="300" width="161.8" height="22" fill="#377eb8" rx="3" ry="3"/>
<text class="value" x="287.8207970782828" y="315.4">10.4%</text>
<text class="label" x="10" y="343.4">SawyerW</text>
<rect x="120" y="328" width="116.6" height="22" fill="#377eb8" rx="3" ry="3"/>
<text class="value" x="242.5911560194022" y="343.4">7.5%</text>
</svg>